<svg width="256" height="425" viewBox="0 0 256 425" fill="none" xmlns="http://www.w3.org/2000/svg">
<path d="M65.6992 330.301L0.107727 362.384L122.145 421.825C125.462 423.441 129.338 423.44 132.656 421.824L255.039 362.19L189.281 329.651L129.116 359.529C128.004 360.081 126.698 360.085 125.582 359.54L65.6992 330.301Z" fill="url(#paint0_linear_1_10)"/>
<path d="M57.602 98.1749V98.1542L125.778 64.9028C126.884 64.3631 128.178 64.3631 129.285 64.9028L197.466 98.1542L255.004 62.1986L132.745 2.56591C129.425 0.946488 125.544 0.946456 122.224 2.56583L0 62.1797V62.2349L57.5537 98.199L57.602 98.1749Z" fill="url(#paint1_linear_1_10)"/>
<path d="M0.156189 305.914C0.156189 301.333 2.76474 297.151 6.8794 295.137L63.0712 267.625L127.785 299.667L0.156189 362.462V305.914Z" fill="url(#paint2_radial_1_10)"/>
<path d="M196.678 99.4103C196.678 129.18 196.678 185.334 196.678 197.72C196.678 199.247 195.808 200.604 194.436 201.275L126.336 234.602L191.022 266.941L247.272 239.434C251.39 237.42 254.001 233.237 254.001 228.654V62.1908L196.678 98.1666V99.4103Z" fill="url(#paint3_radial_1_10)"/>
<path d="M255.004 305.648C255.004 301.095 252.427 296.934 248.351 294.905L59.8068 201.07C58.448 200.393 57.589 199.006 57.589 197.489V98.1815L0 62.2302V63.1375V228.485C0 233.046 2.58599 237.213 6.67329 239.238L255.004 362.253V305.648Z" fill="url(#paint4_radial_1_10)"/>
<defs>
<linearGradient id="paint0_linear_1_10" x1="127.574" y1="-4.68797" x2="127.574" y2="421.275" gradientUnits="userSpaceOnUse">
<stop stop-color="#002E3B"/>
<stop offset="1" stop-color="#002639"/>
</linearGradient>
<linearGradient id="paint1_linear_1_10" x1="127.502" y1="-2.75729" x2="127.502" y2="421.037" gradientUnits="userSpaceOnUse">
<stop stop-color="#002E3B"/>
<stop offset="1" stop-color="#002639"/>
</linearGradient>
<radialGradient id="paint2_radial_1_10" cx="0" cy="0" r="1" gradientUnits="userSpaceOnUse" gradientTransform="translate(21.1172 403.242) scale(377.233 280.312)">
<stop stop-color="#00BC85"/>
<stop offset="1" stop-color="#149D91"/>
</radialGradient>
<radialGradient id="paint3_radial_1_10" cx="0" cy="0" r="1" gradientUnits="userSpaceOnUse" gradientTransform="translate(147.303 -25.8512) scale(455.768 730.965)">
<stop stop-color="#00BC85"/>
<stop offset="1" stop-color="#149D91"/>
</radialGradient>
<radialGradient id="paint4_radial_1_10" cx="0" cy="0" r="1" gradientUnits="userSpaceOnUse" gradientTransform="translate(29.2414 -59.1534) scale(875.146 1029.65)">
<stop stop-color="#004473"/>
<stop offset="1" stop-color="#00345F"/>
</radialGradient>
</defs>
</svg>
